<svg width="48" height="49" viewBox="0 0 48 49" fill="none" xmlns="http://www.w3.org/2000/svg">
    <g id="fluent-mdl2:verified-brand" clip-path="url(#clip0_1377_7066)">
        <path id="Vector" d="M43.2422 24.75L46.1484 28.3828C46.4297 28.7422 46.6484 29.1328 46.8047 29.5547C46.9609 29.9766 47.0391 30.4219 47.0391 30.8906C47.0391 31.3594 46.9688 31.8047 46.8281 32.2266C46.6875 32.6484 46.4844 33.0312 46.2188 33.375C45.9531 33.7188 45.6328 34.0156 45.2578 34.2656C44.8828 34.5156 44.4766 34.7031 44.0391 34.8281L39.5625 36.0703C39.5938 36.8672 39.6328 37.6719 39.6797 38.4844C39.7266 39.2969 39.7578 40.1094 39.7734 40.9219C39.7734 41.4844 39.6719 42.0078 39.4688 42.4922C39.2656 42.9766 38.9766 43.3984 38.6016 43.7578C38.2266 44.1172 37.7969 44.4062 37.3125 44.625C36.8281 44.8438 36.2969 44.9531 35.7188 44.9531C35.2344 44.9531 34.7578 44.8672 34.2891 44.6953L29.9531 43.0547L27.3984 46.9219C27.0234 47.4844 26.5391 47.9297 25.9453 48.2578C25.3516 48.5859 24.7031 48.75 24 48.75C23.3125 48.75 22.6719 48.5859 22.0781 48.2578C21.4844 47.9297 20.9922 47.4844 20.6016 46.9219L18.0469 43.0547L13.7109 44.6953C13.2422 44.8672 12.7656 44.9531 12.2812 44.9531C11.7188 44.9531 11.1953 44.8516 10.7109 44.6484C10.2266 44.4453 9.79688 44.1562 9.42188 43.7812C9.04688 43.4062 8.75781 42.9766 8.55469 42.4922C8.35156 42.0078 8.24219 41.4844 8.22656 40.9219C8.22656 40.1094 8.25 39.2969 8.29688 38.4844C8.34375 37.6719 8.39062 36.8672 8.4375 36.0703L3.96094 34.8281C3.50781 34.7031 3.10156 34.5156 2.74219 34.2656C2.38281 34.0156 2.07031 33.7188 1.80469 33.375C1.53906 33.0312 1.33594 32.6484 1.19531 32.2266C1.05469 31.8047 0.976562 31.3594 0.960938 30.8906C0.960938 30.4375 1.03906 30 1.19531 29.5781C1.35156 29.1562 1.57031 28.7578 1.85156 28.3828L4.75781 24.75L1.85156 21.1172C1.25781 20.3828 0.960938 19.5469 0.960938 18.6094C0.960938 18.1406 1.03125 17.6953 1.17188 17.2734C1.3125 16.8516 1.51562 16.4688 1.78125 16.125C2.04688 15.7812 2.35938 15.4844 2.71875 15.2344C3.07812 14.9844 3.49219 14.7969 3.96094 14.6719L8.4375 13.4297C8.40625 12.6328 8.36719 11.8281 8.32031 11.0156C8.27344 10.2031 8.24219 9.39062 8.22656 8.57812C8.22656 8.01562 8.32812 7.49219 8.53125 7.00781C8.73438 6.52344 9.02344 6.10156 9.39844 5.74219C9.77344 5.38281 10.2031 5.09375 10.6875 4.875C11.1719 4.65625 11.7031 4.54688 12.2812 4.54688C12.7656 4.54688 13.2422 4.63281 13.7109 4.80469L18.0469 6.44531L20.6016 2.57812C20.9766 2.01562 21.4609 1.57031 22.0547 1.24219C22.6484 0.914062 23.2969 0.75 24 0.75C24.6875 0.75 25.3281 0.914062 25.9219 1.24219C26.5156 1.57031 27.0078 2.01562 27.3984 2.57812L29.9531 6.44531L34.2891 4.80469C34.7578 4.63281 35.2344 4.54688 35.7188 4.54688C36.2812 4.54688 36.8047 4.64844 37.2891 4.85156C37.7734 5.05469 38.2031 5.34375 38.5781 5.71875C38.9531 6.09375 39.2422 6.52344 39.4453 7.00781C39.6484 7.49219 39.7578 8.01562 39.7734 8.57812C39.7734 9.39062 39.75 10.2031 39.7031 11.0156C39.6562 11.8281 39.6094 12.6328 39.5625 13.4297L44.0391 14.6719C44.4766 14.7969 44.8828 14.9844 45.2578 15.2344C45.6328 15.4844 45.9453 15.7812 46.1953 16.125C46.4453 16.4688 46.6484 16.8516 46.8047 17.2734C46.9609 17.6953 47.0391 18.1406 47.0391 18.6094C47.0391 19.5469 46.7422 20.3828 46.1484 21.1172L43.2422 24.75ZM44.0391 30.8906C44.0391 30.6719 43.9609 30.4609 43.8047 30.2578L39.3984 24.75L43.8047 19.2422C43.9609 19.0391 44.0391 18.8281 44.0391 18.6094C44.0391 18.0781 43.7734 17.7344 43.2422 17.5781L38.7656 16.3359L36.4688 15.7031C36.5156 14.5156 36.5781 13.3281 36.6562 12.1406C36.7344 10.9531 36.7734 9.76562 36.7734 8.57812C36.7734 8.3125 36.6641 8.07812 36.4453 7.875C36.2266 7.67188 35.9844 7.5625 35.7188 7.54688C35.625 7.54688 35.4141 7.59375 35.0859 7.6875C34.7578 7.78125 34.375 7.91406 33.9375 8.08594C33.5 8.25781 33.0156 8.44531 32.4844 8.64844C31.9531 8.85156 31.4531 9.04688 30.9844 9.23438C30.5156 9.42188 30.0781 9.59375 29.6719 9.75C29.2656 9.90625 28.9609 10.0234 28.7578 10.1016L27.4453 8.10938L24.8906 4.21875C24.6875 3.90625 24.3906 3.75 24 3.75C23.6094 3.75 23.3125 3.90625 23.1094 4.21875L20.5547 8.10938L19.2422 10.1016C19.0391 10.0234 18.7422 9.90625 18.3516 9.75C17.9609 9.59375 17.5156 9.42188 17.0156 9.23438C16.5156 9.04688 16.0156 8.85156 15.5156 8.64844C15.0156 8.44531 14.5391 8.26562 14.0859 8.10938C13.6328 7.95312 13.2422 7.82031 12.9141 7.71094C12.5859 7.60156 12.375 7.54688 12.2812 7.54688C12.0156 7.54688 11.7734 7.64844 11.5547 7.85156C11.3359 8.05469 11.2266 8.29688 11.2266 8.57812C11.2266 9.76562 11.2656 10.9531 11.3438 12.1406C11.4219 13.3281 11.4844 14.5156 11.5312 15.7031L9.23438 16.3359L4.75781 17.5781C4.22656 17.7344 3.96094 18.0781 3.96094 18.6094C3.96094 18.8281 4.03906 19.0391 4.19531 19.2422L8.60156 24.75L4.19531 30.2578C4.03906 30.4609 3.96094 30.6719 3.96094 30.8906C3.96094 31.4219 4.22656 31.7656 4.75781 31.9219L9.23438 33.1641L11.5312 33.7969C11.4844 34.9844 11.4219 36.1719 11.3438 37.3594C11.2656 38.5469 11.2266 39.7344 11.2266 40.9219C11.2266 41.1875 11.3359 41.4219 11.5547 41.625C11.7734 41.8281 12.0156 41.9375 12.2812 41.9531C12.375 41.9531 12.5859 41.9062 12.9141 41.8125C13.2422 41.7188 13.625 41.5859 14.0625 41.4141C14.5 41.2422 14.9844 41.0547 15.5156 40.8516C16.0469 40.6484 16.5469 40.4531 17.0156 40.2656C17.4844 40.0781 17.9219 39.9062 18.3281 39.75C18.7344 39.5938 19.0391 39.4766 19.2422 39.3984L20.5547 41.3906L23.1094 45.2812C23.3125 45.5938 23.6094 45.75 24 45.75C24.3906 45.75 24.6875 45.5938 24.8906 45.2812L27.4453 41.3906L28.7578 39.3984C28.9609 39.4766 29.2578 39.5938 29.6484 39.75C30.0391 39.9062 30.4844 40.0781 30.9844 40.2656C31.4844 40.4531 31.9844 40.6484 32.4844 40.8516C32.9844 41.0547 33.4609 41.2344 33.9141 41.3906C34.3672 41.5469 34.7578 41.6797 35.0859 41.7891C35.4141 41.8984 35.625 41.9531 35.7188 41.9531C35.9844 41.9531 36.2266 41.8516 36.4453 41.6484C36.6641 41.4453 36.7734 41.2031 36.7734 40.9219C36.7734 39.7344 36.7344 38.5469 36.6562 37.3594C36.5781 36.1719 36.5156 34.9844 36.4688 33.7969L38.7656 33.1641L43.2422 31.9219C43.7734 31.7656 44.0391 31.4219 44.0391 30.8906ZM21 28.6172L31.9453 17.6953L34.0547 19.8047L21 32.8828L13.9453 25.8047L16.0547 23.6953L21 28.6172Z" fill="white"/>
    </g>
    <defs>
        <clipPath id="clip0_1377_7066">
            <rect width="48" height="48" fill="white" transform="translate(0 0.75)"/>
        </clipPath>
    </defs>
</svg>
